<?xml version="1.0" standalone="no"?>
<!DOCTYPE svg PUBLIC "-//W3C//DTD SVG 20010904//EN"
 "http://www.w3.org/TR/2001/REC-SVG-20010904/DTD/svg10.dtd">
<svg version="1.0" xmlns="http://www.w3.org/2000/svg"
 width="656.000000pt" height="656.000000pt" viewBox="0 0 656.000000 656.000000"
 preserveAspectRatio="xMidYMid meet">
<metadata>
Created by potrace 1.14, written by Peter Selinger 2001-2017
</metadata>
<g transform="translate(0.000000,656.000000) scale(0.100000,-0.100000)"
fill="#000000" stroke="none">
<path d="M2988 6475 c-2 -2 -39 -6 -83 -10 -87 -6 -119 -10 -162 -19 -15 -3
-46 -8 -68 -11 -41 -5 -56 -8 -130 -24 -75 -17 -230 -59 -273 -75 -23 -8 -45
-15 -47 -15 -6 0 -109 -37 -140 -50 -11 -5 -56 -24 -100 -42 -164 -69 -505
-260 -559 -315 -8 -8 -19 -14 -25 -14 -6 0 -11 -4 -11 -10 0 -5 -6 -10 -14
-10 -8 0 -16 -3 -18 -7 -2 -5 -37 -35 -78 -68 -41 -33 -86 -69 -100 -80 -48
-40 -286 -281 -325 -330 -22 -27 -48 -57 -57 -66 -10 -9 -18 -21 -18 -28 0 -6
-3 -11 -7 -11 -5 0 -19 -17 -33 -37 -14 -20 -30 -41 -35 -47 -16 -16 -155
-225 -155 -232 0 -3 -8 -18 -19 -32 -30 -43 -136 -251 -184 -364 -55 -127
-130 -339 -142 -398 -2 -8 -10 -40 -19 -70 -20 -70 -64 -284 -67 -330 -2 -19
-5 -39 -8 -44 -2 -6 -5 -19 -6 -30 -1 -12 -6 -64 -11 -116 -10 -106 -11 -524
-1 -613 10 -87 18 -149 23 -177 3 -14 7 -38 10 -55 2 -16 7 -41 11 -55 3 -14
7 -34 8 -45 6 -39 14 -81 24 -113 5 -18 10 -36 11 -40 3 -26 64 -238 80 -277
4 -11 27 -69 50 -130 76 -195 176 -388 301 -580 69 -106 79 -116 80 -90 0 17
2 41 4 55 1 14 5 63 9 110 4 47 9 99 11 115 6 62 17 151 20 167 2 9 7 38 11
65 3 26 8 57 11 68 2 11 6 31 8 45 5 30 32 165 40 200 3 14 8 36 11 50 55 266
199 662 345 945 81 157 93 180 102 183 4 2 7 9 7 16 0 6 7 21 15 31 8 11 49
72 91 135 69 104 134 190 219 290 37 44 240 246 280 280 17 14 59 48 95 75 36
28 67 53 68 58 2 4 8 7 14 7 5 0 24 11 42 25 18 14 38 25 44 25 6 0 12 4 14 9
2 7 192 114 208 117 3 0 27 10 53 22 27 12 52 22 56 22 4 0 21 7 38 15 39 19
281 81 358 91 76 10 384 10 450 0 28 -4 62 -9 77 -11 15 -1 31 -5 35 -8 5 -3
28 -8 51 -12 23 -3 61 -13 84 -21 l41 -14 201 204 c205 208 868 882 1054 1073
l104 105 -62 39 c-33 22 -63 39 -65 39 -3 0 -14 8 -25 18 -11 9 -24 16 -28 16
-4 -1 -18 6 -32 16 -29 20 -222 116 -290 144 -112 45 -258 97 -330 117 -25 7
-49 14 -55 15 -96 28 -168 43 -175 39 -6 -4 -10 -1 -10 6 0 7 -3 10 -6 7 -3
-4 -20 -2 -37 3 -18 5 -52 12 -77 15 -25 3 -63 9 -85 14 -22 4 -67 11 -100 15
-33 3 -73 8 -90 11 -36 5 -502 14 -507 9z"/>
<path d="M5348 5582 c-7 -11 -45 -55 -84 -98 -39 -43 -93 -104 -119 -134 -27
-30 -51 -57 -54 -60 -5 -4 -105 -118 -246 -280 -16 -19 -39 -43 -50 -55 -11
-12 -47 -52 -80 -91 -33 -38 -67 -76 -75 -84 -8 -8 -44 -49 -80 -90 -36 -41
-72 -82 -80 -90 -13 -14 -71 -81 -137 -156 -29 -33 -136 -154 -158 -178 -11
-12 -47 -53 -80 -91 -33 -37 -78 -88 -100 -113 -22 -25 -47 -53 -55 -62 -55
-63 -124 -141 -153 -174 l-35 -39 -41 32 c-54 43 -193 99 -283 114 -78 14
-168 15 -233 2 -22 -4 -49 -9 -60 -10 -11 -2 -21 -4 -22 -5 -2 -2 -6 -3 -10
-5 -51 -14 -129 -51 -185 -87 -67 -43 -208 -182 -208 -204 0 -3 -9 -18 -19
-33 -22 -31 -65 -135 -81 -198 -9 -35 -21 -137 -22 -178 -1 -100 46 -266 103
-362 47 -79 150 -186 227 -236 36 -23 68 -42 71 -42 3 -1 15 -6 26 -12 25 -14
118 -43 165 -51 106 -19 291 -3 378 34 44 18 46 16 98 -86 20 -41 44 -83 52
-92 12 -14 14 -61 14 -248 0 -157 3 -240 11 -258 38 -85 103 -154 232 -243 39
-27 75 -52 80 -56 36 -26 162 -91 310 -159 89 -40 151 -67 160 -69 6 -2 36
-14 67 -29 31 -14 62 -26 67 -26 6 0 11 -4 11 -8 0 -5 6 -9 13 -9 9 -1 251
-105 435 -188 17 -8 49 -22 70 -31 58 -25 72 -31 157 -69 44 -20 94 -38 111
-39 38 -4 69 16 57 37 -4 9 -118 129 -253 268 -135 138 -280 288 -324 333 -43
45 -158 163 -255 262 -97 100 -286 295 -421 434 -135 140 -279 288 -320 330
-120 123 -114 113 -88 142 64 72 147 220 151 269 2 24 5 24 106 -7 47 -14 94
-28 105 -30 10 -2 30 -14 44 -26 22 -21 223 -224 280 -284 32 -34 113 -55 212
-54 47 0 96 2 110 4 14 3 41 7 60 10 50 8 72 13 143 31 34 9 67 18 72 19 34 8
49 13 425 161 80 31 197 77 260 101 63 25 124 49 135 54 11 5 63 25 115 45 52
20 109 42 125 49 42 18 99 41 105 42 12 2 103 39 136 56 26 12 49 51 41 71 -4
11 -46 14 -224 16 -539 7 -2131 28 -2199 30 -17 1 -23 9 -27 39 -4 20 -6 39
-6 42 1 12 -55 156 -68 176 -12 19 -12 24 2 37 8 9 24 19 35 22 11 3 20 11 20
16 0 5 4 9 10 9 5 0 34 16 64 35 58 37 61 37 321 50 185 9 206 16 285 94 57
56 98 111 157 206 40 65 118 240 162 365 28 80 54 151 56 158 2 7 5 16 6 20 1
4 13 36 26 72 14 36 36 99 50 140 14 41 31 89 39 106 7 17 15 40 17 50 2 11 7
26 10 34 4 8 16 42 27 75 12 33 24 67 27 75 3 8 7 20 9 25 1 6 19 55 39 110
20 55 38 107 40 115 2 8 14 40 26 70 30 74 31 128 2 147 -19 13 -22 12 -35 -5z"/>
<path d="M2194 4056 c-3 -9 -11 -16 -16 -16 -25 0 -276 -231 -352 -323 -17
-21 -40 -49 -51 -61 -11 -12 -36 -44 -55 -70 -19 -26 -47 -62 -62 -81 -16 -18
-28 -36 -28 -40 0 -4 -12 -24 -27 -44 -33 -43 -38 -51 -100 -159 -101 -175
-187 -358 -248 -522 -15 -41 -31 -84 -35 -95 -24 -61 -93 -289 -105 -345 -2
-8 -11 -46 -20 -85 -27 -114 -40 -174 -50 -245 -3 -19 -10 -60 -15 -90 -9 -53
-12 -74 -25 -185 -17 -138 -27 -310 -30 -489 l-2 -160 81 -79 c45 -43 99 -93
120 -110 21 -18 52 -44 68 -59 16 -16 33 -28 38 -28 4 0 10 -4 12 -8 3 -8 165
-132 172 -132 3 0 37 -22 78 -49 124 -83 299 -176 460 -244 97 -42 322 -121
371 -131 12 -3 31 -7 42 -10 64 -17 194 -47 215 -50 14 -2 41 -6 60 -10 94
-17 219 -33 315 -41 50 -4 315 -17 350 -16 54 0 260 11 295 15 25 4 65 8 90
11 71 7 161 22 190 30 8 2 29 7 45 10 30 5 57 11 98 21 12 3 33 7 46 10 13 3
34 10 45 16 12 6 22 10 24 9 8 -7 112 35 112 45 0 7 -12 36 -26 66 -14 29 -32
67 -39 83 -26 57 -77 169 -122 269 -25 56 -63 139 -84 184 -21 46 -39 85 -39
87 0 2 -22 51 -50 109 -27 58 -50 108 -50 111 0 3 -16 40 -36 82 -20 43 -48
103 -62 133 -13 30 -35 76 -48 103 -13 26 -20 47 -17 47 3 0 -1 8 -10 18 -8 9
-16 22 -17 27 -1 6 -11 30 -22 55 -12 25 -45 99 -75 165 -29 66 -58 124 -63
129 -5 5 -85 11 -177 12 -373 6 -539 45 -780 180 -231 130 -382 285 -501 515
-102 197 -133 318 -134 527 -1 110 13 297 27 362 3 14 8 39 11 55 9 53 73 234
105 298 17 34 51 93 76 131 24 37 42 71 39 74 -3 2 -8 -3 -12 -12z"/>
</g>
</svg>
