<svg width="334" height="291" viewBox="0 0 334 291" fill="none" xmlns="http://www.w3.org/2000/svg">
<path d="M259.685 154.386C244.111 199.95 187.284 237.88 138.494 242.507C89.704 247.135 60.0446 203.313 70.4974 157.479C86.072 111.914 138.932 67.7423 187.722 63.1147C242.777 55.5461 275.26 108.822 259.685 154.386Z" fill="url(#paint0_linear_533_2868)"/>
<path d="M87.3035 124.946C99.805 107.251 117.284 91.5336 137.029 80.2329L160.62 145.364L87.3035 124.946Z" fill="url(#paint1_linear_533_2868)" fill-opacity="0.6"/>
<path d="M74.0593 203.515C68.8162 194.197 66.8718 182.846 68.3846 170.386L160.62 145.364L74.0593 203.515Z" fill="url(#paint2_linear_533_2868)"/>
<path d="M68.3746 170.468C70.149 155.71 76.7109 139.934 87.3171 124.927L160.62 145.364L68.3746 170.468Z" fill="url(#paint3_linear_533_2868)"/>
<path d="M207.373 63.0171C186.133 60.4235 160.837 66.6119 137.05 80.221L160.62 145.364L207.373 63.0171Z" fill="url(#paint4_linear_533_2868)"/>
<path d="M252.391 101.706C250.387 91.1099 245.301 82.1291 237.509 75.4312C229.718 68.7334 219.422 64.4908 207.387 63.0188L160.62 145.364L252.391 101.706Z" fill="url(#paint5_linear_533_2868)"/>
<path d="M252.34 101.442C254.672 113.436 252.965 127.147 247.383 141.27C241.8 155.394 232.526 169.461 220.444 182.136C208.361 194.811 193.87 205.671 178.349 213.686C162.827 221.7 146.79 226.602 131.762 227.926L160.62 145.364L252.34 101.442Z" fill="url(#paint6_linear_533_2868)"/>
<path d="M74.0385 203.478C78.2088 210.906 84.3893 216.893 92.2567 221.126L160.62 145.364L74.0385 203.478Z" fill="url(#paint7_linear_533_2868)"/>
<path d="M115.221 227.864C120.725 228.436 126.531 228.432 132.548 227.853L160.62 145.364L115.221 227.864Z" fill="url(#paint8_linear_533_2868)"/>
<path d="M92.2118 221.102C98.8587 224.687 106.62 226.969 115.204 227.862L160.62 145.364L92.2118 221.102Z" fill="url(#paint9_linear_533_2868)"/>
<circle r="77.6623" transform="matrix(1.00239 -0.0950735 -0.31998 0.93612 160.62 145.364)" stroke="white" stroke-width="0.226846" stroke-linecap="round" stroke-linejoin="round" stroke-dasharray="0.91 0.91"/>
<circle r="62.2619" transform="matrix(1.00239 -0.0950735 -0.31998 0.93612 160.62 145.364)" stroke="white" stroke-width="0.181862" stroke-linecap="round" stroke-linejoin="round" stroke-dasharray="0.73 0.73"/>
<g filter="url(#filter0_f_533_2868)">
<circle r="11.0164" transform="matrix(1.00239 -0.0950735 -0.31998 0.93612 133.133 103.867)" fill="white"/>
</g>
<g filter="url(#filter1_f_533_2868)">
<circle r="11.0164" transform="matrix(1.00239 -0.0950735 -0.31998 0.93612 197.353 122.922)" fill="white"/>
</g>
<g filter="url(#filter2_f_533_2868)">
<circle r="11.0164" transform="matrix(1.00239 -0.0950735 -0.31998 0.93612 137.433 161.932)" fill="white"/>
</g>
<g filter="url(#filter3_f_533_2868)">
<circle r="11.0164" transform="matrix(1.00239 -0.0950735 -0.31998 0.93612 188.823 190.386)" fill="white"/>
</g>
<g filter="url(#filter4_f_533_2868)">
<circle r="11.0164" transform="matrix(0.205711 -0.919585 1.03192 -0.19931 95.5932 193.242)" fill="white"/>
</g>
<g filter="url(#filter5_f_533_2868)">
<circle r="11.0164" transform="matrix(0.205711 -0.919585 1.03192 -0.19931 139.243 120.645)" fill="white"/>
</g>
<g filter="url(#filter6_f_533_2868)">
<circle r="11.0164" transform="matrix(0.205711 -0.919585 1.03192 -0.19931 167.332 157.48)" fill="white"/>
</g>
<g filter="url(#filter7_f_533_2868)">
<circle r="11.0164" transform="matrix(0.205711 -0.919585 1.03192 -0.19931 218.263 92.2002)" fill="white"/>
</g>
<rect width="1.47765" height="13.5452" rx="0.738827" transform="matrix(-0.31998 0.93612 -1.00239 0.0950735 237.495 137.398)" fill="white" fill-opacity="0.7"/>
<rect width="1.47765" height="13.5452" rx="0.738827" transform="matrix(-0.396292 0.940663 -0.974753 0.0226528 235.405 143.02)" fill="white" fill-opacity="0.7"/>
<rect width="1.47765" height="13.5452" rx="0.738827" transform="matrix(-0.477191 0.939215 -0.937816 -0.0568468 232.642 149.096)" fill="white" fill-opacity="0.7"/>
<rect width="1.47765" height="13.5452" rx="0.738827" transform="matrix(-0.550765 0.931642 -0.896598 -0.131868 229.541 154.841)" fill="white" fill-opacity="0.7"/>
<rect width="1.47765" height="13.5452" rx="0.738827" transform="matrix(-0.623439 0.917439 -0.847688 -0.208898 225.884 160.69)" fill="white" fill-opacity="0.7"/>
<rect width="1.47751" height="13.5449" rx="0.738753" transform="matrix(-0.691164 0.897101 -0.79345 -0.283771 221.812 166.392)" fill="white" fill-opacity="0.7"/>
<rect width="1.47752" height="13.5448" rx="0.738759" transform="matrix(-0.753616 0.870939 -0.734404 -0.356039 217.35 171.926)" fill="white" fill-opacity="0.7"/>
<rect width="1.47753" height="13.5447" rx="0.738765" transform="matrix(-0.810572 0.839262 -0.671019 -0.42535 212.521 177.269)" fill="white" fill-opacity="0.7"/>
<rect width="1.47754" height="13.5446" rx="0.738771" transform="matrix(-0.861878 0.80235 -0.603707 -0.49143 207.354 182.396)" fill="white" fill-opacity="0.7"/>
<rect width="1.47756" height="13.5444" rx="0.738779" transform="matrix(-0.909341 0.75843 -0.529517 -0.556816 201.78 187.366)" fill="white" fill-opacity="0.7"/>
<rect width="1.47757" height="13.5443" rx="0.738786" transform="matrix(-0.948714 0.711535 -0.455214 -0.615608 196.039 191.963)" fill="white" fill-opacity="0.7"/>
<rect width="1.47759" height="13.5442" rx="0.738793" transform="matrix(-0.982058 0.660042 -0.377922 -0.670524 190.056 196.262)" fill="white" fill-opacity="0.7"/>
<rect width="1.4776" height="13.5441" rx="0.738799" transform="matrix(-1.0092 0.604108 -0.297906 -0.72133 183.866 200.232)" fill="white" fill-opacity="0.7"/>
<rect width="1.47761" height="13.5439" rx="0.738806" transform="matrix(-1.03074 0.541065 -0.211657 -0.769756 177.452 203.88)" fill="white" fill-opacity="0.7"/>
<rect width="1.47762" height="13.5438" rx="0.738812" transform="matrix(-1.04454 0.476598 -0.127032 -0.811261 170.985 207.101)" fill="white" fill-opacity="0.7"/>
<rect width="1.47763" height="13.5437" rx="0.738817" transform="matrix(-1.05144 0.408323 -0.0407602 -0.847691 164.438 209.913)" fill="white" fill-opacity="0.7"/>
<rect width="1.47764" height="13.5437" rx="0.738821" transform="matrix(-1.05119 0.336589 0.0466241 -0.878654 157.859 212.295)" fill="white" fill-opacity="0.7"/>
<rect width="1.47765" height="13.5436" rx="0.738824" transform="matrix(-1.0441 0.265312 0.130477 -0.902745 151.328 214.217)" fill="white" fill-opacity="0.7"/>
<rect width="1.47765" height="13.5436" rx="0.738826" transform="matrix(-1.03021 0.191816 0.214081 -0.921172 144.851 215.683)" fill="white" fill-opacity="0.7"/>
<rect width="1.47765" height="13.5436" rx="0.738827" transform="matrix(-1.00953 0.116723 0.296679 -0.933667 138.476 216.684)" fill="white" fill-opacity="0.7"/>
<rect width="1.47765" height="13.5436" rx="0.738827" transform="matrix(-0.980745 0.0371477 0.381218 -0.940203 131.95 217.23)" fill="white" fill-opacity="0.7"/>
<rect width="1.47765" height="13.5436" rx="0.738825" transform="matrix(-0.946789 -0.0388342 0.459124 -0.940133 125.921 217.267)" fill="white" fill-opacity="0.7"/>
<rect width="1.47765" height="13.5436" rx="0.738823" transform="matrix(-0.904876 -0.117673 0.537052 -0.933543 120.098 216.825)" fill="white" fill-opacity="0.7"/>
<rect width="1.47764" height="13.5437" rx="0.738819" transform="matrix(-0.859291 -0.191562 0.607343 -0.921217 114.583 215.907)" fill="white" fill-opacity="0.7"/>
<rect width="1.47763" height="13.5438" rx="0.738814" transform="matrix(-0.806217 -0.266969 0.676225 -0.902246 109.353 214.515)" fill="white" fill-opacity="0.7"/>
<rect width="1.47762" height="13.5439" rx="0.738809" transform="matrix(-0.74822 -0.339863 0.739898 -0.87738 104.474 212.662)" fill="white" fill-opacity="0.7"/>
<rect width="1.47761" height="13.544" rx="0.738803" transform="matrix(-0.682847 -0.412981 0.800633 -0.845419 99.9307 210.342)" fill="white" fill-opacity="0.7"/>
<rect width="1.47759" height="13.5441" rx="0.738796" transform="matrix(-0.616221 -0.479667 0.852975 -0.809439 95.8398 207.611)" fill="white" fill-opacity="0.7"/>
<rect width="1.47758" height="13.5442" rx="0.738789" transform="matrix(-0.54596 -0.542935 0.899566 -0.76843 92.1846 204.477)" fill="white" fill-opacity="0.7"/>
<rect width="1.47756" height="13.5444" rx="0.738782" transform="matrix(-0.472373 -0.602579 0.94029 -0.722603 88.9834 200.961)" fill="white" fill-opacity="0.7"/>
<rect width="1.47755" height="13.5445" rx="0.738775" transform="matrix(-0.392185 -0.660838 0.976451 -0.669739 86.2041 197.015)" fill="white" fill-opacity="0.7"/>
<rect width="1.47754" height="13.5446" rx="0.738768" transform="matrix(-0.312644 -0.71241 1.00474 -0.614601 83.9648 192.793)" fill="white" fill-opacity="0.7"/>
<rect width="1.47752" height="13.5448" rx="0.738762" transform="matrix(-0.230614 -0.759654 1.02667 -0.555157 82.2256 188.26)" fill="white" fill-opacity="0.7"/>
<rect width="1.47751" height="13.5449" rx="0.738756" transform="matrix(-0.146426 -0.80226 1.042 -0.491595 81 183.438)" fill="white" fill-opacity="0.7"/>
<rect width="1.47765" height="13.5452" rx="0.738827" transform="matrix(-0.060486 -0.839877 1.05049 -0.424158 80.2988 178.347)" fill="white" fill-opacity="0.7"/>
<rect width="1.47765" height="13.5452" rx="0.738827" transform="matrix(0.0266982 -0.872118 1.05188 -0.353174 80.1348 173.003)" fill="white" fill-opacity="0.7"/>
<rect width="1.47765" height="13.5452" rx="0.738827" transform="matrix(0.114502 -0.898584 1.04597 -0.279077 80.5176 167.422)" fill="white" fill-opacity="0.7"/>
<rect width="1.47765" height="13.5452" rx="0.738827" transform="matrix(0.19821 -0.918112 1.03338 -0.205959 81.4189 161.851)" fill="white" fill-opacity="0.7"/>
<rect width="1.47765" height="13.5452" rx="0.738827" transform="matrix(0.281062 -0.931754 1.01399 -0.131117 82.8496 156.112)" fill="white" fill-opacity="0.7"/>
<rect width="1.47765" height="13.5452" rx="0.738827" transform="matrix(0.366045 -0.939518 0.986507 -0.0516424 84.917 149.956)" fill="white" fill-opacity="0.7"/>
<rect width="1.47765" height="13.5452" rx="0.738827" transform="matrix(0.44453 -0.940619 0.953726 0.0243949 87.374 144.122)" fill="white" fill-opacity="0.7"/>
<rect width="1.47765" height="13.5452" rx="0.738827" transform="matrix(0.519707 -0.935617 0.914946 0.0998612 90.2578 138.392)" fill="white" fill-opacity="0.7"/>
<rect width="1.47765" height="13.5452" rx="0.738827" transform="matrix(0.594285 -0.924008 0.868372 0.177617 93.7432 132.467)" fill="white" fill-opacity="0.7"/>
<rect width="1.47765" height="13.5452" rx="0.738827" transform="matrix(0.66408 -0.906143 0.816248 0.253433 97.6504 126.693)" fill="white" fill-opacity="0.7"/>
<rect width="1.47751" height="13.5449" rx="0.738756" transform="matrix(0.728721 -0.882326 0.759109 0.326814 101.941 121.1)" fill="white" fill-opacity="0.7"/>
<rect width="1.47752" height="13.5447" rx="0.738762" transform="matrix(0.787947 -0.852869 0.697446 0.397372 106.58 115.715)" fill="white" fill-opacity="0.7"/>
<rect width="1.47754" height="13.5446" rx="0.738769" transform="matrix(0.84158 -0.818067 0.631695 0.464803 111.534 110.561)" fill="white" fill-opacity="0.7"/>
<rect width="1.47755" height="13.5445" rx="0.738776" transform="matrix(0.891528 -0.77625 0.55899 0.531695 117.167 105.31)" fill="white" fill-opacity="0.7"/>
<rect width="1.47757" height="13.5444" rx="0.738783" transform="matrix(0.933328 -0.731285 0.485987 0.592013 122.694 100.681)" fill="white" fill-opacity="0.7"/>
<rect width="1.47758" height="13.5442" rx="0.73879" transform="matrix(0.969156 -0.681653 0.409886 0.648541 128.452 96.3413)" fill="white" fill-opacity="0.7"/>
<rect width="1.47759" height="13.5441" rx="0.738797" transform="matrix(0.99886 -0.627517 0.330951 0.701059 134.418 92.3052)" fill="white" fill-opacity="0.7"/>
<rect width="1.47761" height="13.544" rx="0.738804" transform="matrix(1.02316 -0.566277 0.2457 0.751399 141.082 88.3057)" fill="white" fill-opacity="0.7"/>
<rect width="1.47762" height="13.5439" rx="0.738809" transform="matrix(1.03971 -0.503448 0.161876 0.794874 147.429 84.9565)" fill="white" fill-opacity="0.7"/>
<rect width="1.47763" height="13.5438" rx="0.738815" transform="matrix(1.04947 -0.436694 0.0762204 0.833426 153.929 81.9727)" fill="white" fill-opacity="0.7"/>
<rect width="1.47764" height="13.5437" rx="0.738819" transform="matrix(1.05217 -0.366326 -0.0107804 0.866674 160.565 79.3789)" fill="white" fill-opacity="0.7"/>
<rect width="1.47765" height="13.5436" rx="0.738823" transform="matrix(1.04796 -0.296163 -0.0945291 0.893096 166.75 77.3667)" fill="white" fill-opacity="0.7"/>
<rect width="1.47765" height="13.5436" rx="0.738826" transform="matrix(1.03631 -0.220039 -0.182308 0.914839 173.607 75.603)" fill="white" fill-opacity="0.7"/>
<rect width="1.47765" height="13.5436" rx="0.738827" transform="matrix(1.0182 -0.145474 -0.265383 0.92962 179.973 74.4116)" fill="white" fill-opacity="0.7"/>
<rect width="1.47765" height="13.5436" rx="0.738827" transform="matrix(0.992037 -0.0661318 -0.350777 0.938609 186.68 73.6431)" fill="white" fill-opacity="0.7"/>
<rect width="1.47765" height="13.5436" rx="0.738826" transform="matrix(0.960446 0.00993458 -0.429816 0.940883 192.793 73.4067)" fill="white" fill-opacity="0.7"/>
<rect width="1.47765" height="13.5436" rx="0.738824" transform="matrix(0.922775 0.0855616 -0.505672 0.937034 198.536 73.6323)" fill="white" fill-opacity="0.7"/>
<rect width="1.47764" height="13.5437" rx="0.738821" transform="matrix(0.877268 0.163607 -0.581068 0.926593 204.399 74.3745)" fill="white" fill-opacity="0.7"/>
<rect width="1.47763" height="13.5437" rx="0.738816" transform="matrix(0.828554 0.2364 -0.648659 0.910737 209.406 75.4746)" fill="white" fill-opacity="0.7"/>
<rect width="1.47762" height="13.5438" rx="0.738811" transform="matrix(0.772509 0.310372 -0.714497 0.888245 214.476 77.1167)" fill="white" fill-opacity="0.7"/>
<rect width="1.47761" height="13.544" rx="0.738805" transform="matrix(0.708973 0.384768 -0.77759 0.85863 219.493 79.3828)" fill="white" fill-opacity="0.7"/>
<rect width="1.4776" height="13.5441" rx="0.738799" transform="matrix(0.643936 0.452787 -0.832251 0.82478 223.696 81.9004)" fill="white" fill-opacity="0.7"/>
<rect width="1.47758" height="13.5442" rx="0.738792" transform="matrix(0.575122 0.517479 -0.881209 0.7858 227.479 84.8125)" fill="white" fill-opacity="0.7"/>
<rect width="1.47757" height="13.5443" rx="0.738785" transform="matrix(0.50286 0.57863 -0.924347 0.74192 230.83 88.104)" fill="white" fill-opacity="0.7"/>
<rect width="1.47756" height="13.5445" rx="0.738778" transform="matrix(0.423941 0.638555 -0.963092 0.691016 233.936 92.0454)" fill="white" fill-opacity="0.7"/>
<rect width="1.47754" height="13.5446" rx="0.738771" transform="matrix(0.345501 0.691819 -0.993923 0.637688 236.351 96.0703)" fill="white" fill-opacity="0.7"/>
<rect width="1.47753" height="13.5447" rx="0.738764" transform="matrix(0.264453 0.740869 -1.01848 0.579984 238.291 100.432)" fill="white" fill-opacity="0.7"/>
<rect width="1.47752" height="13.5448" rx="0.738758" transform="matrix(0.181104 0.785412 -1.03654 0.518081 239.74 105.117)" fill="white" fill-opacity="0.7"/>
<rect width="1.47751" height="13.5449" rx="0.738753" transform="matrix(0.095825 0.825116 -1.04786 0.452195 240.676 110.109)" fill="white" fill-opacity="0.7"/>
<rect width="1.47765" height="13.5452" rx="0.738827" transform="matrix(0.00908124 0.859604 -1.05219 0.382617 241.078 115.389)" fill="white" fill-opacity="0.7"/>
<rect width="1.47765" height="13.5452" rx="0.738827" transform="matrix(-0.0785526 0.88848 -1.04928 0.309732 240.927 120.932)" fill="white" fill-opacity="0.7"/>
<rect width="1.47765" height="13.5452" rx="0.738827" transform="matrix(-0.16638 0.911353 -1.03898 0.234052 240.204 126.707)" fill="white" fill-opacity="0.7"/>
<rect width="1.47765" height="13.5452" rx="0.738827" transform="matrix(-0.24965 0.927266 -1.02218 0.159789 238.978 132.386)" fill="white" fill-opacity="0.7"/>
<path d="M191.767 165.43C191.887 165.078 192.115 164.778 192.449 164.53C192.784 164.281 193.153 164.137 193.557 164.099C193.947 164.062 194.235 164.135 194.42 164.318C194.606 164.5 194.644 164.75 194.537 165.065C194.467 165.268 194.334 165.476 194.136 165.689C193.941 165.899 193.617 166.183 193.163 166.539L191.955 167.489L191.939 167.534L193.817 167.356L193.634 167.89L190.87 168.152L191.017 167.722L192.866 166.241C193.23 165.949 193.48 165.732 193.617 165.589C193.755 165.444 193.848 165.301 193.896 165.159C193.956 164.984 193.935 164.844 193.833 164.741C193.73 164.637 193.573 164.596 193.361 164.616C193.135 164.637 192.931 164.718 192.747 164.857C192.566 164.995 192.44 165.168 192.37 165.373L192.367 165.381L191.764 165.438L191.767 165.43ZM196.285 167.639L196.538 166.898L194.536 167.087L194.725 166.535C195.229 165.961 196.088 165.061 197.302 163.833L198.21 163.747L197.334 166.308L197.9 166.254L197.719 166.786L197.153 166.839L196.899 167.58L196.285 167.639ZM195.337 166.474L195.325 166.511L196.724 166.379L197.425 164.328L197.388 164.332C196.684 165.029 196 165.743 195.337 166.474Z" fill="white"/>
<path d="M201.201 108.657C201.321 108.304 201.548 108.004 201.882 107.757C202.217 107.507 202.587 107.364 202.99 107.325C203.381 107.288 203.669 107.361 203.854 107.544C204.039 107.727 204.078 107.976 203.97 108.291C203.901 108.495 203.767 108.703 203.57 108.915C203.375 109.126 203.051 109.409 202.597 109.766L201.388 110.716L201.373 110.761L203.25 110.583L203.068 111.117L200.303 111.379L200.45 110.949L202.299 109.468C202.663 109.176 202.914 108.959 203.051 108.815C203.188 108.67 203.281 108.527 203.33 108.385C203.39 108.21 203.369 108.071 203.266 107.967C203.164 107.864 203.007 107.822 202.794 107.843C202.569 107.864 202.364 107.944 202.181 108.083C202 108.222 201.874 108.394 201.804 108.6L201.801 108.608L201.198 108.665L201.201 108.657ZM205.323 110.993C204.843 111.038 204.53 110.897 204.383 110.57C204.238 110.243 204.274 109.761 204.492 109.123C204.708 108.491 205.01 107.986 205.398 107.608C205.786 107.231 206.219 107.019 206.697 106.974C207.171 106.929 207.481 107.071 207.627 107.4C207.774 107.727 207.739 108.207 207.522 108.841C207.305 109.477 207.003 109.983 206.618 110.361C206.232 110.737 205.801 110.947 205.323 110.993ZM204.984 110.148C205.048 110.391 205.22 110.499 205.501 110.472C205.781 110.445 206.04 110.298 206.277 110.028C206.515 109.757 206.716 109.38 206.881 108.897C207.045 108.419 207.094 108.059 207.03 107.819C206.966 107.576 206.795 107.468 206.519 107.494C206.242 107.521 205.983 107.669 205.741 107.941C205.5 108.212 205.298 108.586 205.135 109.062C204.97 109.544 204.92 109.906 204.984 110.148Z" fill="#141430"/>
<path d="M166.353 102.625L167.444 99.4321L167.396 99.4366L166.134 100.214L166.342 99.606L167.666 98.7916L168.3 98.7315L166.99 102.564L166.353 102.625ZM170.847 101.988C170.49 102.222 170.083 102.361 169.626 102.404C169.169 102.448 168.833 102.379 168.617 102.199C168.404 102.019 168.353 101.763 168.467 101.432C168.55 101.188 168.701 100.969 168.92 100.775C169.14 100.581 169.391 100.447 169.671 100.372L169.687 100.327C169.49 100.296 169.353 100.211 169.276 100.07C169.202 99.9284 169.2 99.7547 169.27 99.5493C169.373 99.2465 169.587 98.9863 169.911 98.7689C170.235 98.5514 170.598 98.4236 171 98.3855C171.402 98.3473 171.699 98.4125 171.891 98.5811C172.082 98.7497 172.127 98.9854 172.023 99.2882C171.952 99.4954 171.827 99.6811 171.648 99.8455C171.469 100.01 171.263 100.128 171.029 100.2L171.014 100.245C171.261 100.266 171.434 100.358 171.533 100.522C171.631 100.684 171.638 100.889 171.554 101.137C171.44 101.468 171.205 101.752 170.847 101.988ZM169.216 101.785C169.338 101.894 169.531 101.935 169.795 101.91C170.058 101.885 170.294 101.803 170.501 101.663C170.709 101.522 170.847 101.351 170.916 101.151C170.984 100.951 170.957 100.796 170.835 100.686C170.713 100.576 170.521 100.533 170.257 100.558C169.993 100.583 169.758 100.666 169.55 100.808C169.342 100.949 169.204 101.12 169.135 101.32C169.067 101.52 169.094 101.675 169.216 101.785ZM169.936 99.959C170.037 100.056 170.199 100.093 170.423 100.072C170.647 100.051 170.847 99.9789 171.023 99.856C171.199 99.733 171.317 99.583 171.377 99.406C171.439 99.2271 171.419 99.0885 171.319 98.99C171.218 98.8916 171.056 98.853 170.833 98.8742C170.609 98.8954 170.409 98.9684 170.232 99.0931C170.057 99.2176 169.94 99.3693 169.878 99.5481C169.818 99.7252 169.837 99.8622 169.936 99.959Z" fill="white"/>
<path d="M125.576 122.723L126.668 119.531L126.619 119.535L125.357 120.313L125.565 119.705L126.889 118.89L127.524 118.83L126.213 122.663L125.576 122.723ZM128.305 119.828C128.426 119.475 128.653 119.175 128.987 118.928C129.322 118.678 129.691 118.535 130.095 118.496C130.486 118.459 130.774 118.532 130.959 118.715C131.144 118.898 131.183 119.147 131.075 119.462C131.006 119.666 130.872 119.874 130.675 120.086C130.48 120.297 130.155 120.58 129.701 120.937L128.493 121.887L128.478 121.932L130.355 121.754L130.173 122.288L127.408 122.55L127.555 122.119L129.404 120.638C129.768 120.347 130.019 120.13 130.156 119.986C130.293 119.841 130.386 119.698 130.435 119.556C130.495 119.381 130.473 119.242 130.371 119.138C130.269 119.035 130.112 118.993 129.899 119.013C129.674 119.035 129.469 119.115 129.286 119.254C129.104 119.393 128.979 119.565 128.908 119.77L128.906 119.778L128.303 119.836L128.305 119.828ZM131.732 122.073C131.627 122.156 131.514 122.204 131.394 122.215C131.275 122.227 131.188 122.198 131.135 122.129C131.081 122.061 131.074 121.971 131.112 121.859C131.15 121.748 131.222 121.65 131.327 121.566C131.433 121.483 131.546 121.435 131.665 121.424C131.785 121.412 131.871 121.441 131.925 121.51C131.978 121.578 131.986 121.668 131.948 121.78C131.91 121.891 131.838 121.989 131.732 122.073ZM133.981 122.016C133.573 122.055 133.274 121.981 133.083 121.793C132.892 121.606 132.844 121.344 132.94 121.01L133.546 120.952C133.507 121.136 133.544 121.277 133.657 121.376C133.77 121.475 133.94 121.514 134.165 121.492C134.421 121.468 134.653 121.376 134.86 121.216C135.067 121.056 135.211 120.856 135.293 120.617C135.375 120.378 135.362 120.192 135.256 120.058C135.15 119.922 134.972 119.866 134.721 119.89C134.547 119.907 134.379 119.956 134.217 120.038C134.055 120.12 133.912 120.227 133.79 120.359L133.207 120.414L134.174 118.199L136.568 117.972L136.387 118.503L134.49 118.683L133.998 119.817L134.046 119.813C134.319 119.562 134.647 119.419 135.032 119.382C135.423 119.345 135.7 119.436 135.865 119.653C136.031 119.869 136.05 120.165 135.921 120.542C135.786 120.939 135.538 121.273 135.179 121.545C134.822 121.817 134.422 121.974 133.981 122.016Z" fill="white"/>
<path d="M108.589 149.081L109.68 145.888L109.632 145.893L108.37 146.67L108.578 146.062L109.902 145.248L110.536 145.188L109.226 149.02L108.589 149.081ZM111.84 148.863C111.36 148.908 111.046 148.767 110.9 148.44C110.755 148.113 110.791 147.631 111.009 146.993C111.225 146.361 111.527 145.856 111.915 145.478C112.303 145.101 112.735 144.889 113.213 144.844C113.687 144.799 113.997 144.941 114.144 145.269C114.291 145.596 114.256 146.077 114.039 146.711C113.822 147.347 113.52 147.853 113.134 148.231C112.749 148.607 112.317 148.817 111.84 148.863ZM111.501 148.018C111.565 148.261 111.737 148.369 112.017 148.342C112.298 148.315 112.557 148.167 112.794 147.898C113.031 147.627 113.233 147.25 113.398 146.767C113.562 146.288 113.611 145.929 113.546 145.688C113.483 145.446 113.312 145.338 113.035 145.364C112.758 145.391 112.499 145.539 112.258 145.811C112.017 146.082 111.815 146.456 111.652 146.932C111.487 147.414 111.437 147.776 111.501 148.018Z" fill="white"/>
<path d="M107.052 172.2C106.688 172.235 106.411 172.17 106.221 172.007C106.031 171.843 105.959 171.608 106.003 171.3L106.646 171.239C106.642 171.39 106.693 171.505 106.798 171.582C106.904 171.659 107.051 171.689 107.239 171.671C107.553 171.641 107.841 171.492 108.102 171.222C108.366 170.95 108.579 170.583 108.743 170.12L108.72 170.122L108.706 170.124L108.695 170.125C108.533 170.318 108.341 170.475 108.118 170.596C107.896 170.714 107.663 170.785 107.421 170.808C107.03 170.845 106.748 170.756 106.574 170.539C106.402 170.322 106.38 170.029 106.506 169.659C106.64 169.268 106.888 168.934 107.25 168.658C107.615 168.38 108.015 168.22 108.452 168.179C108.755 168.15 108.999 168.193 109.184 168.307C109.369 168.42 109.484 168.599 109.529 168.843C109.592 169.137 109.543 169.517 109.384 169.985C109.162 170.635 108.845 171.155 108.435 171.545C108.027 171.933 107.566 172.152 107.052 172.2ZM107.733 170.29C107.983 170.267 108.215 170.174 108.428 170.011C108.641 169.849 108.787 169.654 108.864 169.428C108.943 169.197 108.926 169.013 108.814 168.875C108.701 168.736 108.524 168.678 108.281 168.701C108.037 168.725 107.806 168.82 107.589 168.988C107.372 169.156 107.225 169.353 107.148 169.577C107.069 169.809 107.083 169.992 107.192 170.126C107.3 170.26 107.48 170.314 107.733 170.29Z" fill="#141430"/>
<path d="M113.519 186.398L113.772 185.657L111.77 185.847L111.959 185.294C112.463 184.72 113.322 183.82 114.536 182.593L115.443 182.507L114.568 185.067L115.134 185.014L114.953 185.545L114.387 185.599L114.133 186.34L113.519 186.398ZM112.571 185.234L112.558 185.271L113.958 185.138L114.659 183.087L114.622 183.091C113.917 183.788 113.234 184.503 112.571 185.234Z" fill="#141430"/>
<path d="M126.211 191.338C126.332 190.986 126.559 190.686 126.893 190.438C127.228 190.189 127.597 190.045 128.001 190.007C128.392 189.97 128.68 190.043 128.865 190.226C129.05 190.409 129.089 190.658 128.981 190.973C128.911 191.177 128.778 191.385 128.581 191.597C128.386 191.807 128.061 192.091 127.607 192.447L126.399 193.397L126.384 193.442L128.261 193.264L128.079 193.798L125.314 194.06L125.461 193.63L127.31 192.149C127.674 191.858 127.924 191.64 128.061 191.497C128.199 191.352 128.292 191.209 128.341 191.067C128.4 190.892 128.379 190.752 128.277 190.649C128.175 190.546 128.017 190.504 127.805 190.524C127.579 190.546 127.375 190.626 127.192 190.765C127.01 190.904 126.884 191.076 126.814 191.281L126.812 191.289L126.209 191.346L126.211 191.338Z" fill="#141430"/>
<path d="M135.71 196.091C135.23 196.137 134.917 195.996 134.77 195.669C134.625 195.342 134.662 194.859 134.88 194.222C135.096 193.59 135.398 193.085 135.785 192.707C136.173 192.329 136.606 192.117 137.084 192.072C137.558 192.027 137.868 192.169 138.014 192.498C138.161 192.825 138.126 193.305 137.91 193.939C137.692 194.575 137.391 195.082 137.005 195.459C136.62 195.835 136.188 196.046 135.71 196.091ZM135.371 195.247C135.435 195.489 135.608 195.597 135.888 195.57C136.169 195.544 136.428 195.396 136.665 195.127C136.902 194.856 137.104 194.479 137.269 193.995C137.432 193.517 137.482 193.158 137.417 192.917C137.353 192.675 137.183 192.567 136.906 192.593C136.629 192.619 136.37 192.768 136.129 193.039C135.887 193.311 135.685 193.684 135.522 194.161C135.358 194.642 135.307 195.004 135.371 195.247ZM138.616 195.659C138.51 195.742 138.397 195.79 138.278 195.801C138.158 195.813 138.072 195.784 138.018 195.715C137.965 195.647 137.957 195.557 137.995 195.445C138.033 195.334 138.105 195.236 138.211 195.152C138.316 195.069 138.429 195.021 138.548 195.01C138.668 194.998 138.754 195.027 138.808 195.096C138.862 195.164 138.869 195.254 138.831 195.366C138.793 195.477 138.721 195.575 138.616 195.659ZM140.864 195.602C140.456 195.641 140.157 195.566 139.966 195.379C139.775 195.191 139.728 194.93 139.824 194.596L140.43 194.538C140.391 194.722 140.428 194.863 140.541 194.962C140.654 195.061 140.823 195.1 141.049 195.078C141.305 195.054 141.536 194.962 141.743 194.802C141.95 194.642 142.094 194.442 142.176 194.203C142.258 193.964 142.246 193.777 142.139 193.644C142.033 193.508 141.855 193.452 141.605 193.476C141.43 193.492 141.262 193.542 141.1 193.624C140.938 193.706 140.796 193.813 140.674 193.945L140.091 194L141.057 191.785L143.452 191.558L143.27 192.089L141.373 192.269L140.881 193.403L140.929 193.399C141.202 193.148 141.531 193.005 141.916 192.968C142.306 192.931 142.584 193.021 142.748 193.239C142.915 193.454 142.933 193.751 142.805 194.128C142.669 194.525 142.422 194.859 142.063 195.131C141.705 195.403 141.306 195.56 140.864 195.602Z" fill="white"/>
<defs>
<filter id="filter0_f_533_2868" x="82.9807" y="54.9436" width="100.304" height="97.8477" filterUnits="userSpaceOnUse" color-interpolation-filters="sRGB">
<feFlood flood-opacity="0" result="BackgroundImageFix"/>
<feBlend mode="normal" in="SourceGraphic" in2="BackgroundImageFix" result="shape"/>
<feGaussianBlur stdDeviation="19.2787" result="effect1_foregroundBlur_533_2868"/>
</filter>
<filter id="filter1_f_533_2868" x="147.2" y="73.9978" width="100.304" height="97.8477" filterUnits="userSpaceOnUse" color-interpolation-filters="sRGB">
<feFlood flood-opacity="0" result="BackgroundImageFix"/>
<feBlend mode="normal" in="SourceGraphic" in2="BackgroundImageFix" result="shape"/>
<feGaussianBlur stdDeviation="19.2787" result="effect1_foregroundBlur_533_2868"/>
</filter>
<filter id="filter2_f_533_2868" x="87.2805" y="113.009" width="100.304" height="97.8477" filterUnits="userSpaceOnUse" color-interpolation-filters="sRGB">
<feFlood flood-opacity="0" result="BackgroundImageFix"/>
<feBlend mode="normal" in="SourceGraphic" in2="BackgroundImageFix" result="shape"/>
<feGaussianBlur stdDeviation="19.2787" result="effect1_foregroundBlur_533_2868"/>
</filter>
<filter id="filter3_f_533_2868" x="138.671" y="141.462" width="100.304" height="97.8477" filterUnits="userSpaceOnUse" color-interpolation-filters="sRGB">
<feFlood flood-opacity="0" result="BackgroundImageFix"/>
<feBlend mode="normal" in="SourceGraphic" in2="BackgroundImageFix" result="shape"/>
<feGaussianBlur stdDeviation="19.2787" result="effect1_foregroundBlur_533_2868"/>
</filter>
<filter id="filter4_f_533_2868" x="45.4416" y="144.317" width="100.303" height="97.8501" filterUnits="userSpaceOnUse" color-interpolation-filters="sRGB">
<feFlood flood-opacity="0" result="BackgroundImageFix"/>
<feBlend mode="normal" in="SourceGraphic" in2="BackgroundImageFix" result="shape"/>
<feGaussianBlur stdDeviation="19.2787" result="effect1_foregroundBlur_533_2868"/>
</filter>
<filter id="filter5_f_533_2868" x="89.091" y="71.7195" width="100.303" height="97.8501" filterUnits="userSpaceOnUse" color-interpolation-filters="sRGB">
<feFlood flood-opacity="0" result="BackgroundImageFix"/>
<feBlend mode="normal" in="SourceGraphic" in2="BackgroundImageFix" result="shape"/>
<feGaussianBlur stdDeviation="19.2787" result="effect1_foregroundBlur_533_2868"/>
</filter>
<filter id="filter6_f_533_2868" x="117.18" y="108.555" width="100.303" height="97.8501" filterUnits="userSpaceOnUse" color-interpolation-filters="sRGB">
<feFlood flood-opacity="0" result="BackgroundImageFix"/>
<feBlend mode="normal" in="SourceGraphic" in2="BackgroundImageFix" result="shape"/>
<feGaussianBlur stdDeviation="19.2787" result="effect1_foregroundBlur_533_2868"/>
</filter>
<filter id="filter7_f_533_2868" x="168.112" y="43.2751" width="100.303" height="97.8501" filterUnits="userSpaceOnUse" color-interpolation-filters="sRGB">
<feFlood flood-opacity="0" result="BackgroundImageFix"/>
<feBlend mode="normal" in="SourceGraphic" in2="BackgroundImageFix" result="shape"/>
<feGaussianBlur stdDeviation="19.2787" result="effect1_foregroundBlur_533_2868"/>
</filter>
<linearGradient id="paint0_linear_533_2868" x1="236.058" y1="58.0767" x2="60.3121" y2="208.88" gradientUnits="userSpaceOnUse">
<stop offset="0.0494008" stop-color="#D09E8B" stop-opacity="0.79"/>
<stop offset="0.078125" stop-color="#F03C4A"/>
<stop offset="0.500881" stop-color="#B76489" stop-opacity="0.57"/>
<stop offset="0.747755" stop-color="#A93A68"/>
<stop offset="0.873397" stop-color="#3A5A74"/>
<stop offset="0.928009" stop-color="#389B32"/>
<stop offset="0.941549" stop-color="#9E5A95"/>
</linearGradient>
<linearGradient id="paint1_linear_533_2868" x1="72.2783" y1="153.743" x2="225.35" y2="206.065" gradientUnits="userSpaceOnUse">
<stop stop-color="#30CFD0"/>
<stop offset="1" stop-color="#330867"/>
</linearGradient>
<linearGradient id="paint2_linear_533_2868" x1="72.2783" y1="153.743" x2="225.35" y2="206.065" gradientUnits="userSpaceOnUse">
<stop stop-color="#16A085"/>
<stop offset="1" stop-color="#F4D03F"/>
</linearGradient>
<linearGradient id="paint3_linear_533_2868" x1="72.2783" y1="153.743" x2="225.35" y2="206.065" gradientUnits="userSpaceOnUse">
<stop stop-color="#09203F"/>
<stop offset="1" stop-color="#537895"/>
</linearGradient>
<linearGradient id="paint4_linear_533_2868" x1="248.962" y1="136.985" x2="95.8906" y2="84.6632" gradientUnits="userSpaceOnUse">
<stop stop-color="#F83600"/>
<stop offset="1" stop-color="#F9D423"/>
</linearGradient>
<linearGradient id="paint5_linear_533_2868" x1="248.962" y1="136.985" x2="95.8906" y2="84.6632" gradientUnits="userSpaceOnUse">
<stop stop-color="#C79081"/>
<stop offset="1" stop-color="#DFA579"/>
</linearGradient>
<linearGradient id="paint6_linear_533_2868" x1="248.962" y1="136.985" x2="95.8907" y2="84.6633" gradientUnits="userSpaceOnUse">
<stop stop-color="#F43B47"/>
<stop offset="1" stop-color="#453A94"/>
</linearGradient>
<linearGradient id="paint7_linear_533_2868" x1="72.2784" y1="153.743" x2="225.35" y2="206.065" gradientUnits="userSpaceOnUse">
<stop stop-color="#874DA2"/>
<stop offset="1" stop-color="#C43A30"/>
</linearGradient>
<linearGradient id="paint8_linear_533_2868" x1="72.2784" y1="153.743" x2="225.35" y2="206.065" gradientUnits="userSpaceOnUse">
<stop stop-color="#243949"/>
<stop offset="1" stop-color="#517FA4"/>
</linearGradient>
<linearGradient id="paint9_linear_533_2868" x1="72.2784" y1="153.743" x2="225.35" y2="206.065" gradientUnits="userSpaceOnUse">
<stop stop-color="#0FD850"/>
<stop offset="1" stop-color="#F9F047"/>
</linearGradient>
</defs>
</svg>
