<svg width="31" height="33" viewBox="0 0 31 33" fill="none" xmlns="http://www.w3.org/2000/svg">
<rect y="3" width="31" height="30" rx="6.37819" fill="#2724CD"/>
<path d="M20.0314 20.7468C21.204 19.1984 21.7292 17.2786 21.5019 15.3716C21.2746 13.4645 20.3117 11.7108 18.8057 10.4614C17.2997 9.21192 15.3618 8.55881 13.3796 8.63273C11.3974 8.70664 9.51709 9.50213 8.11493 10.86C6.71276 12.2179 5.89211 14.0381 5.81715 15.9564C5.74219 17.8747 6.41845 19.7497 7.71064 21.2062C9.00283 22.6627 10.8157 23.5933 12.7864 23.8119C14.7572 24.0305 16.7406 23.5209 18.3398 22.3851H18.3385C18.3749 22.4319 18.4136 22.4765 18.4572 22.5198L23.1193 27.0315C23.3464 27.2514 23.6544 27.375 23.9756 27.3751C24.2969 27.3753 24.605 27.2519 24.8322 27.0321C25.0594 26.8124 25.1871 26.5143 25.1873 26.2034C25.1874 25.8926 25.0599 25.5944 24.8328 25.3745L20.1707 20.8628C20.1274 20.8204 20.0809 20.7812 20.0314 20.7456V20.7468ZM20.3439 16.2421C20.3439 17.0885 20.1716 17.9266 19.8369 18.7086C19.5022 19.4906 19.0116 20.2011 18.3931 20.7996C17.7747 21.3981 17.0405 21.8729 16.2324 22.1968C15.4244 22.5207 14.5583 22.6874 13.6837 22.6874C12.8091 22.6874 11.943 22.5207 11.135 22.1968C10.3269 21.8729 9.59272 21.3981 8.97426 20.7996C8.35581 20.2011 7.86523 19.4906 7.53052 18.7086C7.19582 17.9266 7.02355 17.0885 7.02355 16.2421C7.02355 14.5327 7.72524 12.8933 8.97426 11.6846C10.2233 10.4758 11.9173 9.79678 13.6837 9.79678C15.4501 9.79678 17.1441 10.4758 18.3931 11.6846C19.6422 12.8933 20.3439 14.5327 20.3439 16.2421V16.2421Z" fill="white"/>
</svg>
